<svg width="21" height="21" viewBox="0 0 21 21" fill="none" xmlns="http://www.w3.org/2000/svg">
<path d="M1.78828 6.9499H20.1883V18.1499C20.1883 18.8126 19.651 19.3499 18.9883 19.3499H2.98828C2.32554 19.3499 1.78828 18.8126 1.78828 18.1499V6.9499Z" stroke="#2D2D2D" stroke-width="1.6"/>
<rect x="5.58838" y="12.1499" width="2" height="2" rx="1" fill="#2D2D2D"/>
<rect x="9.9884" y="12.1499" width="2" height="2" rx="1" fill="#2D2D2D"/>
<rect x="14.3884" y="12.1499" width="2" height="2" rx="1" fill="#2D2D2D"/>
<rect x="6.38828" y="0.549902" width="0.8" height="1.7" rx="0.4" stroke="#2D2D2D" stroke-width="0.8"/>
<rect x="14.7887" y="0.549902" width="0.8" height="1.7" rx="0.4" stroke="#2D2D2D" stroke-width="0.8"/>
<mask id="path-7-inside-1_501_19163" fill="white">
<path d="M0.988281 3.74365C0.988281 2.63908 1.88371 1.74365 2.98828 1.74365H18.9883C20.0928 1.74365 20.9883 2.63908 20.9883 3.74365V7.74365H0.988281V3.74365Z"/>
</mask>
<path d="M-0.611719 3.74365C-0.611719 1.75543 1.00006 0.143652 2.98828 0.143652H18.9883C20.9765 0.143652 22.5883 1.75543 22.5883 3.74365L19.3883 3.74365C19.3883 3.52274 19.2092 3.34365 18.9883 3.34365H2.98828C2.76737 3.34365 2.58828 3.52274 2.58828 3.74365L-0.611719 3.74365ZM20.9883 7.74365H0.988281H20.9883ZM-0.611719 7.74365V3.74365C-0.611719 1.75543 1.00006 0.143652 2.98828 0.143652L2.98828 3.34365C2.76737 3.34365 2.58828 3.52274 2.58828 3.74365V7.74365H-0.611719ZM18.9883 0.143652C20.9765 0.143652 22.5883 1.75543 22.5883 3.74365V7.74365H19.3883V3.74365C19.3883 3.52274 19.2092 3.34365 18.9883 3.34365V0.143652Z" fill="#2D2D2D" mask="url(#path-7-inside-1_501_19163)"/>
</svg>
