<svg width="30" height="31" viewBox="0 0 30 31" fill="none" xmlns="http://www.w3.org/2000/svg">
<path d="M28.4843 8.74294H21.8374V2.09599C21.8374 1.74342 21.6973 1.40528 21.448 1.15597C21.1987 0.906662 20.8606 0.766602 20.508 0.766602H9.87287C9.52029 0.766602 9.18216 0.906662 8.93285 1.15597C8.68354 1.40528 8.54348 1.74342 8.54348 2.09599V8.74294H1.89653C1.54395 8.74294 1.20582 8.883 0.956508 9.13231C0.707199 9.38162 0.567139 9.71976 0.567139 10.0723V28.6838C0.567139 29.0364 0.707199 29.3745 0.956508 29.6238C1.20582 29.8731 1.54395 30.0132 1.89653 30.0132H28.4843C28.8369 30.0132 29.175 29.8731 29.4244 29.6238C29.6737 29.3745 29.8137 29.0364 29.8137 28.6838V10.0723C29.8137 9.71976 29.6737 9.38162 29.4244 9.13231C29.175 8.883 28.8369 8.74294 28.4843 8.74294ZM3.22592 11.4017H8.54348V27.3544H3.22592V11.4017ZM11.2023 10.0723V3.42538H19.1786V27.3544H16.5198V24.6956C16.5198 24.343 16.3798 24.0049 16.1304 23.7556C15.8811 23.5063 15.543 23.3662 15.1904 23.3662C14.8379 23.3662 14.4997 23.5063 14.2504 23.7556C14.0011 24.0049 13.861 24.343 13.861 24.6956V27.3544H11.2023V10.0723ZM27.1549 27.3544H21.8374V11.4017H27.1549V27.3544ZM16.5198 8.74294H13.861V6.08416H16.5198V8.74294ZM16.5198 14.0605H13.861V11.4017H16.5198V14.0605ZM16.5198 19.3781H13.861V16.7193H16.5198V19.3781ZM4.55531 12.7311H7.21409V15.3899H4.55531V12.7311ZM4.55531 18.0487H7.21409V20.7075H4.55531V18.0487ZM4.55531 23.3662H7.21409V26.025H4.55531V23.3662ZM25.8256 15.3899H23.1668V12.7311H25.8256V15.3899ZM25.8256 20.7075H23.1668V18.0487H25.8256V20.7075ZM25.8256 26.025H23.1668V23.3662H25.8256V26.025Z" fill="black"/>
</svg>
