<svg width="45" height="30" viewBox="0 0 45 30" fill="none" xmlns="http://www.w3.org/2000/svg">
<path d="M19.8539 9.90166H32.7064V11.2161H19.8539V9.90166Z" fill="#1D1D1D"/>
<path d="M19.8539 6.78597H32.7064V8.10043H19.8539V6.78597Z" fill="#1D1D1D"/>
<path d="M11.6747 12.6067H32.7063V13.9212H11.6747V12.6067Z" fill="#1D1D1D"/>
<path d="M11.6747 15.3543H32.7063V16.6688H11.6747V15.3543Z" fill="#1D1D1D"/>
<path d="M8.56073 0.623047H35.82C36.4077 0.623047 36.9413 0.862847 37.3276 1.24913C37.7139 1.63542 37.9537 2.16906 37.9537 2.75673V20.0075C37.9537 20.4915 37.5613 20.8839 37.0774 20.8839H7.30348C6.81951 20.8839 6.42715 20.4915 6.42715 20.0075V2.75673C6.42715 2.1691 6.66695 1.63542 7.05324 1.24913C7.43952 0.862847 7.9731 0.623047 8.56073 0.623047ZM35.82 2.37571H8.56073C8.45691 2.37571 8.36179 2.41886 8.29234 2.4883C8.2229 2.55775 8.17975 2.6529 8.17975 2.75673V19.1312H36.201V2.75673C36.201 2.65284 36.1578 2.55775 36.0884 2.4883C36.0189 2.41886 35.9239 2.37571 35.82 2.37571Z" fill="#1D1D1D"/>
<path d="M15.8002 27.5805H27.9433L26.476 24.6363H17.1182L15.8002 27.5805ZM41.8553 29.3332H2.52559C1.99336 29.3332 1.35874 29.075 0.933737 28.7184C0.766712 28.5783 0.620485 28.4147 0.509221 28.2344C0.365548 28.0015 0.282715 27.748 0.282715 27.483C0.282715 27.1851 0.379165 26.8982 0.597358 26.6381L6.59991 19.485C6.75966 19.2703 7.01531 19.1311 7.30349 19.1311H37.0774C37.3273 19.1313 37.5754 19.2378 37.7486 19.4442L43.7835 26.6381C44.0018 26.8982 44.0982 27.1853 44.0982 27.4831C44.0982 27.7482 44.0154 28.0017 43.8717 28.2345C43.7606 28.4147 43.6143 28.5782 43.4473 28.7184C43.0222 29.075 42.3875 29.3332 41.8553 29.3332Z" fill="#1D1D1D"/>
<path d="M13.1405 7.4054C12.7235 7.64077 12.3645 7.99006 12.0947 8.41703C11.7604 8.94612 11.5625 9.59504 11.5625 10.2923V10.3448C11.5625 10.5736 11.646 10.7849 11.7806 10.941C11.9269 11.1108 12.1327 11.2161 12.3626 11.2161H18.0374C18.2673 11.2161 18.4731 11.1108 18.6194 10.941C18.754 10.7849 18.8376 10.5736 18.8376 10.3448V10.2923C18.8376 9.59989 18.6429 8.95569 18.3136 8.42945C18.0456 8.00115 17.6882 7.65015 17.2727 7.41258C17.162 7.63835 17.0147 7.84638 16.8255 8.02893C15.6951 9.11968 13.8464 8.77159 13.1405 7.4054ZM15.2 8.32207C14.7645 8.32152 14.2396 8.1436 13.8404 7.75831C13.5215 7.45062 13.2803 7.01356 13.2241 6.43366C13.22 6.39067 13.2167 6.31625 13.2143 6.23578C13.211 6.1283 13.2091 5.99789 13.2086 5.93514C13.2028 5.18699 13.4443 4.69889 13.8259 4.38889C14.1973 4.08716 14.6837 3.97625 15.193 3.96622C15.2088 3.96593 15.2242 3.96532 15.2394 3.967C15.7369 3.98107 16.2107 4.09359 16.5741 4.38889C16.9556 4.69888 17.1972 5.18699 17.1914 5.93514C17.191 5.99789 17.189 6.1283 17.1857 6.23578C17.1833 6.31625 17.18 6.39067 17.1759 6.43366C17.1181 7.03009 16.8958 7.46754 16.5789 7.77335C16.2087 8.13053 15.7193 8.29649 15.217 8.32065C15.2113 8.32091 15.2057 8.32207 15.2 8.32207Z" fill="#1D1D1D"/>
</svg>
